<svg width="12" height="14" viewBox="0 0 12 14" fill="currentColor" stroke-width="0" stroke="currentColor" xmlns="http://www.w3.org/2000/svg">
<path d="M7.44 0.831999C8.688 0.831999 9.952 1.08 11.232 1.576L10.536 3.76H10.296C9.688 3.392 9.136 3.128 8.64 2.968C8.16 2.808 7.624 2.728 7.032 2.728C5.784 2.728 4.864 3.08 4.272 3.784C3.68 4.472 3.384 5.592 3.384 7.144C3.384 8.648 3.664 9.72 4.224 10.36C4.784 10.984 5.704 11.296 6.984 11.296C7.32 11.296 7.64 11.264 7.944 11.2C8.248 11.136 8.624 11.024 9.072 10.864V9.856L9.048 8.056L11.16 7.912L11.136 9.496V12.424C9.504 12.92 8.08 13.168 6.864 13.168C4.912 13.168 3.44 12.656 2.448 11.632C1.456 10.608 0.96 9.144 0.96 7.24C0.96 5.176 1.52 3.592 2.64 2.488C3.776 1.384 5.376 0.831999 7.44 0.831999Z" fill="currentColor"/>
</svg>
