<svg viewBox="0 0 43 42" fill="none" xmlns="http://www.w3.org/2000/svg">
<rect transform="translate(0.5)" fill="black"/>
<path d="M5.3475 17.5C4.595 17.5 4 16.905 4 16.1525V12.11C4 7.3675 7.8675 3.5 12.61 3.5H16.6525C17.405 3.5 18 4.095 18 4.8475C18 5.6 17.405 6.195 16.6525 6.195H12.61C9.3375 6.195 6.695 8.855 6.695 12.11V16.1525C6.695 16.905 6.0825 17.5 5.3475 17.5Z" fill="white"/>
<path d="M37.6525 17.5C36.9175 17.5 36.305 16.905 36.305 16.1525V12.11C36.305 8.8375 33.645 6.195 30.39 6.195H26.3475C25.595 6.195 25 5.5825 25 4.8475C25 4.1125 25.595 3.5 26.3475 3.5H30.39C35.1325 3.5 39 7.3675 39 12.11V16.1525C39 16.905 38.405 17.5 37.6525 17.5Z" fill="white"/>
<path d="M30.39 38.5H27.9575C27.2225 38.5 26.61 37.905 26.61 37.1525C26.61 36.4175 27.205 35.805 27.9575 35.805H30.39C33.6625 35.805 36.305 33.145 36.305 29.89V27.475C36.305 26.74 36.9 26.1275 37.6525 26.1275C38.3875 26.1275 39 26.7225 39 27.475V29.89C39 34.6325 35.1325 38.5 30.39 38.5Z" fill="white"/>
<path d="M16.6525 38.5H12.61C7.8675 38.5 4 34.6325 4 29.89V25.8475C4 25.095 4.595 24.5 5.3475 24.5C6.1 24.5 6.695 25.095 6.695 25.8475V29.89C6.695 33.1625 9.355 35.805 12.61 35.805H16.6525C17.3875 35.805 18 36.4 18 37.1525C18 37.905 17.405 38.5 16.6525 38.5Z" fill="white"/>
<path d="M19.0625 12.0625H14.1875C13.7565 12.0625 13.3432 12.2337 13.0385 12.5385C12.7337 12.8432 12.5625 13.2565 12.5625 13.6875V18.5625C12.5625 18.9935 12.7337 19.4068 13.0385 19.7115C13.3432 20.0163 13.7565 20.1875 14.1875 20.1875H19.0625C19.4935 20.1875 19.9068 20.0163 20.2115 19.7115C20.5163 19.4068 20.6875 18.9935 20.6875 18.5625V13.6875C20.6875 13.2565 20.5163 12.8432 20.2115 12.5385C19.9068 12.2337 19.4935 12.0625 19.0625 12.0625ZM19.0625 18.5625H14.1875V13.6875H19.0625V18.5625ZM19.0625 21.8125H14.1875C13.7565 21.8125 13.3432 21.9837 13.0385 22.2885C12.7337 22.5932 12.5625 23.0065 12.5625 23.4375V28.3125C12.5625 28.7435 12.7337 29.1568 13.0385 29.4615C13.3432 29.7663 13.7565 29.9375 14.1875 29.9375H19.0625C19.4935 29.9375 19.9068 29.7663 20.2115 29.4615C20.5163 29.1568 20.6875 28.7435 20.6875 28.3125V23.4375C20.6875 23.0065 20.5163 22.5932 20.2115 22.2885C19.9068 21.9837 19.4935 21.8125 19.0625 21.8125ZM19.0625 28.3125H14.1875V23.4375H19.0625V28.3125ZM28.8125 12.0625H23.9375C23.5065 12.0625 23.0932 12.2337 22.7885 12.5385C22.4837 12.8432 22.3125 13.2565 22.3125 13.6875V18.5625C22.3125 18.9935 22.4837 19.4068 22.7885 19.7115C23.0932 20.0163 23.5065 20.1875 23.9375 20.1875H28.8125C29.2435 20.1875 29.6568 20.0163 29.9615 19.7115C30.2663 19.4068 30.4375 18.9935 30.4375 18.5625V13.6875C30.4375 13.2565 30.2663 12.8432 29.9615 12.5385C29.6568 12.2337 29.2435 12.0625 28.8125 12.0625ZM28.8125 18.5625H23.9375V13.6875H28.8125V18.5625ZM22.3125 25.875V22.625C22.3125 22.4095 22.3981 22.2028 22.5505 22.0505C22.7028 21.8981 22.9095 21.8125 23.125 21.8125C23.3405 21.8125 23.5472 21.8981 23.6995 22.0505C23.8519 22.2028 23.9375 22.4095 23.9375 22.625V25.875C23.9375 26.0905 23.8519 26.2972 23.6995 26.4495C23.5472 26.6019 23.3405 26.6875 23.125 26.6875C22.9095 26.6875 22.7028 26.6019 22.5505 26.4495C22.3981 26.2972 22.3125 26.0905 22.3125 25.875ZM30.4375 24.25C30.4375 24.4655 30.3519 24.6722 30.1995 24.8245C30.0472 24.9769 29.8405 25.0625 29.625 25.0625H27.1875V29.125C27.1875 29.3405 27.1019 29.5472 26.9495 29.6995C26.7972 29.8519 26.5905 29.9375 26.375 29.9375H23.125C22.9095 29.9375 22.7028 29.8519 22.5505 29.6995C22.3981 29.5472 22.3125 29.3405 22.3125 29.125C22.3125 28.9095 22.3981 28.7028 22.5505 28.5505C22.7028 28.3981 22.9095 28.3125 23.125 28.3125H25.5625V22.625C25.5625 22.4095 25.6481 22.2028 25.8005 22.0505C25.9528 21.8981 26.1595 21.8125 26.375 21.8125C26.5905 21.8125 26.7972 21.8981 26.9495 22.0505C27.1019 22.2028 27.1875 22.4095 27.1875 22.625V23.4375H29.625C29.8405 23.4375 30.0472 23.5231 30.1995 23.6755C30.3519 23.8278 30.4375 24.0345 30.4375 24.25ZM30.4375 27.5V29.125C30.4375 29.3405 30.3519 29.5472 30.1995 29.6995C30.0472 29.8519 29.8405 29.9375 29.625 29.9375C29.4095 29.9375 29.2028 29.8519 29.0505 29.6995C28.8981 29.5472 28.8125 29.3405 28.8125 29.125V27.5C28.8125 27.2845 28.8981 27.0778 29.0505 26.9255C29.2028 26.7731 29.4095 26.6875 29.625 26.6875C29.8405 26.6875 30.0472 26.7731 30.1995 26.9255C30.3519 27.0778 30.4375 27.2845 30.4375 27.5Z" fill="white"/>
</svg>
