<svg width="43" height="42" viewBox="0 0 43 42" fill="none" xmlns="http://www.w3.org/2000/svg">
  <rect width="42" height="42" transform="translate(0.5)" fill="black"/>
  <path d="M5.3475 17.5C4.595 17.5 4 16.905 4 16.1525V12.11C4 7.3675 7.8675 3.5 12.61 3.5H16.6525C17.405 3.5 18 4.095 18 4.8475C18 5.6 17.405 6.195 16.6525 6.195H12.61C9.3375 6.195 6.695 8.855 6.695 12.11V16.1525C6.695 16.905 6.0825 17.5 5.3475 17.5Z" fill="white"/>
  <path d="M37.6525 17.5C36.9175 17.5 36.305 16.905 36.305 16.1525V12.11C36.305 8.8375 33.645 6.195 30.39 6.195H26.3475C25.595 6.195 25 5.5825 25 4.8475C25 4.1125 25.595 3.5 26.3475 3.5H30.39C35.1325 3.5 39 7.3675 39 12.11V16.1525C39 16.905 38.405 17.5 37.6525 17.5Z" fill="white"/>
  <path d="M30.39 38.5H27.9575C27.2225 38.5 26.61 37.905 26.61 37.1525C26.61 36.4175 27.205 35.805 27.9575 35.805H30.39C33.6625 35.805 36.305 33.145 36.305 29.89V27.475C36.305 26.74 36.9 26.1275 37.6525 26.1275C38.3875 26.1275 39 26.7225 39 27.475V29.89C39 34.6325 35.1325 38.5 30.39 38.5Z" fill="white"/>
  <path d="M16.6525 38.5H12.61C7.8675 38.5 4 34.6325 4 29.89V25.8475C4 25.095 4.595 24.5 5.3475 24.5C6.1 24.5 6.695 25.095 6.695 25.8475V29.89C6.695 33.1625 9.355 35.805 12.61 35.805H16.6525C17.3875 35.805 18 36.4 18 37.1525C18 37.905 17.405 38.5 16.6525 38.5Z" fill="white"/>
  <path d="M32.805 19.6525H30.425H12.575H10.195C9.4425 19.6525 8.8475 20.265 8.8475 21C8.8475 21.735 9.4425 22.3475 10.195 22.3475H12.575H30.425H32.805C33.5575 22.3475 34.1525 21.735 34.1525 21C34.1525 20.265 33.5575 19.6525 32.805 19.6525Z" fill="white"/>
</svg>
